<svg width="46" height="30" viewBox="0 0 46 30" fill="none" xmlns="http://www.w3.org/2000/svg">
<path d="M3.00001 30C2.29168 30 1.69834 29.76 1.22001 29.28C0.741676 28.8 0.501675 28.2067 0.500009 27.5C0.498342 26.7933 0.738342 26.2 1.22001 25.72C1.70168 25.24 2.29501 25 3.00001 25H43C43.7083 25 44.3025 25.24 44.7825 25.72C45.2625 26.2 45.5017 26.7933 45.5 27.5C45.4983 28.2067 45.2583 28.8008 44.78 29.2825C44.3017 29.7642 43.7083 30.0033 43 30H3.00001ZM3.00001 17.5C2.29168 17.5 1.69834 17.26 1.22001 16.78C0.741676 16.3 0.501675 15.7067 0.500009 15C0.498342 14.2933 0.738342 13.7 1.22001 13.22C1.70168 12.74 2.29501 12.5 3.00001 12.5H43C43.7083 12.5 44.3025 12.74 44.7825 13.22C45.2625 13.7 45.5017 14.2933 45.5 15C45.4983 15.7067 45.2583 16.3008 44.78 16.7825C44.3017 17.2642 43.7083 17.5033 43 17.5H3.00001ZM3.00001 5C2.29168 5 1.69834 4.76 1.22001 4.28C0.741676 3.8 0.501675 3.20667 0.500009 2.5C0.498342 1.79333 0.738342 1.2 1.22001 0.72C1.70168 0.24 2.29501 0 3.00001 0H43C43.7083 0 44.3025 0.24 44.7825 0.72C45.2625 1.2 45.5017 1.79333 45.5 2.5C45.4983 3.20667 45.2583 3.80083 44.78 4.2825C44.3017 4.76417 43.7083 5.00333 43 5H3.00001Z" fill="black"/>
</svg>
