<svg width="34" height="36" viewBox="0 0 34 36" fill="none" xmlns="http://www.w3.org/2000/svg">
<path d="M33.25 17V29.5C33.25 31.1576 32.5915 32.7473 31.4194 33.9194C30.2473 35.0915 28.6576 35.75 27 35.75H18.25C17.9185 35.75 17.6005 35.6183 17.3661 35.3838C17.1317 35.1494 17 34.8315 17 34.5C17 34.1684 17.1317 33.8505 17.3661 33.6161C17.6005 33.3817 17.9185 33.25 18.25 33.25H27C27.9946 33.25 28.9484 32.8549 29.6517 32.1516C30.3549 31.4484 30.75 30.4945 30.75 29.5H27C26.0054 29.5 25.0516 29.1049 24.3484 28.4016C23.6451 27.6984 23.25 26.7445 23.25 25.75V19.5C23.25 18.5054 23.6451 17.5516 24.3484 16.8483C25.0516 16.1451 26.0054 15.75 27 15.75H30.6953C30.4588 13.1514 29.4877 10.6738 27.8956 8.6066C26.3035 6.53936 24.1561 4.9678 21.7041 4.07549C19.2521 3.18318 16.5969 3.00696 14.0485 3.56742C11.5001 4.12788 9.16383 5.40188 7.3125 7.2406C5.01051 9.51241 3.59064 12.5283 3.30625 15.75H7C7.99456 15.75 8.94839 16.1451 9.65165 16.8483C10.3549 17.5516 10.75 18.5054 10.75 19.5V25.75C10.75 26.7445 10.3549 27.6984 9.65165 28.4016C8.94839 29.1049 7.99456 29.5 7 29.5H4.5C3.50544 29.5 2.55161 29.1049 1.84835 28.4016C1.14509 27.6984 0.75 26.7445 0.75 25.75V17C0.753505 13.7811 1.71191 10.6355 3.50391 7.96158C5.29591 5.28761 7.84094 3.20539 10.8169 1.97849C13.7928 0.751582 17.0658 0.435149 20.2216 1.06924C23.3775 1.70333 26.2743 3.25944 28.5453 5.5406C30.0448 7.04727 31.2322 8.83505 32.0396 10.8015C32.8469 12.7679 33.2582 14.8743 33.25 17Z" fill="white"/>
</svg>
