<svg width="40" height="40" viewBox="0 0 40 40" fill="none" xmlns="http://www.w3.org/2000/svg">
<path fill-rule="evenodd" clip-rule="evenodd" d="M27.7033 25.2867L34.7766 32.3601L32.42 34.7184L25.3533 27.6517C22.9973 29.4262 20.0566 30.2423 17.1231 29.936C14.1895 29.6297 11.4809 28.2237 9.5422 26.0008C7.60353 23.778 6.57875 20.9033 6.67407 17.9554C6.76939 15.0075 7.97775 12.205 10.056 10.1121C12.1342 8.01911 14.928 6.79098 17.8752 6.67483C20.8224 6.55868 23.7042 7.56312 25.9407 9.48603C28.1772 11.4089 29.6023 14.1076 29.9294 17.0389C30.2564 19.9702 29.461 22.9166 27.7033 25.2851V25.2867ZM26.6666 18.3334C26.6666 16.1233 25.7887 14.0037 24.2259 12.4409C22.6631 10.8781 20.5434 10.0001 18.3333 10.0001C16.1232 10.0001 14.0036 10.8781 12.4408 12.4409C10.878 14.0037 9.99998 16.1233 9.99998 18.3334C9.99998 20.5436 10.878 22.6632 12.4408 24.226C14.0036 25.7888 16.1232 26.6667 18.3333 26.6667C20.5434 26.6667 22.6631 25.7888 24.2259 24.226C25.7887 22.6632 26.6666 20.5436 26.6666 18.3334Z" fill="black"/>
</svg>
