<svg width="40" height="40" viewBox="0 0 40 40" fill="none" xmlns="http://www.w3.org/2000/svg">
<path d="M28.3332 29.9999C29.2172 29.9999 30.0651 30.3511 30.6902 30.9762C31.3153 31.6014 31.6665 32.4492 31.6665 33.3333C31.6665 34.2173 31.3153 35.0652 30.6902 35.6903C30.0651 36.3154 29.2172 36.6666 28.3332 36.6666C27.4491 36.6666 26.6013 36.3154 25.9762 35.6903C25.351 35.0652 24.9998 34.2173 24.9998 33.3333C24.9998 31.4833 26.4832 29.9999 28.3332 29.9999ZM1.6665 3.33325H7.1165L8.68317 6.66659H33.3332C33.7752 6.66659 34.1991 6.84218 34.5117 7.15474C34.8242 7.4673 34.9998 7.89122 34.9998 8.33325C34.9998 8.61659 34.9165 8.89992 34.7998 9.16659L28.8332 19.9499C28.2665 20.9666 27.1665 21.6666 25.9165 21.6666H13.4998L11.9998 24.3833L11.9498 24.5833C11.9498 24.6938 11.9937 24.7997 12.0719 24.8779C12.15 24.956 12.256 24.9999 12.3665 24.9999H31.6665V28.3333H11.6665C10.7824 28.3333 9.9346 27.9821 9.30948 27.3569C8.68436 26.7318 8.33317 25.884 8.33317 24.9999C8.33317 24.4166 8.48317 23.8666 8.73317 23.3999L10.9998 19.3166L4.99984 6.66659H1.6665V3.33325ZM11.6665 29.9999C12.5506 29.9999 13.3984 30.3511 14.0235 30.9762C14.6486 31.6014 14.9998 32.4492 14.9998 33.3333C14.9998 34.2173 14.6486 35.0652 14.0235 35.6903C13.3984 36.3154 12.5506 36.6666 11.6665 36.6666C10.7824 36.6666 9.9346 36.3154 9.30948 35.6903C8.68436 35.0652 8.33317 34.2173 8.33317 33.3333C8.33317 31.4833 9.8165 29.9999 11.6665 29.9999ZM26.6665 18.3333L31.2998 9.99992H10.2332L14.1665 18.3333H26.6665Z" fill="black"/>
</svg>
