<svg width="30" height="29" viewBox="0 0 30 29" fill="none" xmlns="http://www.w3.org/2000/svg">
<path d="M16.476 5.64282C16.476 5.25131 16.3205 4.87583 16.0437 4.59899C15.7668 4.32215 15.3913 4.16663 14.9998 4.16663C14.6083 4.16663 14.2329 4.32215 13.956 4.59899C13.6792 4.87583 13.5236 5.25131 13.5236 5.64282V13.0238H6.14269C5.75118 13.0238 5.37571 13.1793 5.09887 13.4561C4.82203 13.733 4.6665 14.1084 4.6665 14.5C4.6665 14.8915 4.82203 15.2669 5.09887 15.5438C5.37571 15.8206 5.75118 15.9762 6.14269 15.9762H13.5236V23.3571C13.5236 23.7486 13.6792 24.1241 13.956 24.4009C14.2329 24.6778 14.6083 24.8333 14.9998 24.8333C15.3913 24.8333 15.7668 24.6778 16.0437 24.4009C16.3205 24.1241 16.476 23.7486 16.476 23.3571V15.9762H23.857C24.2485 15.9762 24.624 15.8206 24.9008 15.5438C25.1776 15.2669 25.3332 14.8915 25.3332 14.5C25.3332 14.1084 25.1776 13.733 24.9008 13.4561C24.624 13.1793 24.2485 13.0238 23.857 13.0238H16.476V5.64282Z" fill="white"/>
</svg>
