<svg width="21" height="16" viewBox="0 0 21 16" fill="none" xmlns="http://www.w3.org/2000/svg">
<path d="M18.107 2.995C18.031 2.697 17.815 2.472 17.568 2.403C17.13 2.28 15.001 2 10.501 2C6.001 2 3.873 2.28 3.432 2.403C3.188 2.471 2.972 2.696 2.895 2.995C2.786 3.419 2.501 5.195 2.501 8C2.501 10.805 2.786 12.58 2.895 13.006C2.971 13.303 3.187 13.528 3.433 13.596C3.873 13.72 6 14 10.5 14C15 14 17.129 13.72 17.569 13.597C17.813 13.529 18.029 13.304 18.106 13.005C18.216 12.581 18.5 10.8 18.5 8C18.5 5.2 18.216 3.42 18.107 2.995ZM20.043 2.498C20.5 4.28 20.5 8 20.5 8C20.5 8 20.5 11.72 20.043 13.502C19.789 14.487 19.046 15.262 18.105 15.524C16.397 16 10.5 16 10.5 16C10.5 16 4.607 16 2.895 15.524C1.95 15.258 1.208 14.484 0.957 13.502C0.5 11.72 0.5 8 0.5 8C0.5 8 0.5 4.28 0.957 2.498C1.211 1.513 1.954 0.738 2.895 0.476C4.608 -1.78814e-07 10.501 0 10.501 0C10.501 0 16.397 -1.78814e-07 18.106 0.476C19.05 0.742 19.793 1.516 20.044 2.498M8.501 11.5V4.5L14.501 8L8.501 11.5Z" fill="black"/>
</svg>
