<svg width="43" height="43" viewBox="0 0 43 43" fill="none" xmlns="http://www.w3.org/2000/svg">
<path fill-rule="evenodd" clip-rule="evenodd" d="M31.555 27.93L42.165 38.54L38.63 42.0775L28.03 31.4775C24.4959 34.1391 20.0849 35.3634 15.6846 34.9039C11.2843 34.4445 7.2213 32.3354 4.3133 29.0011C1.4053 25.6669 -0.131879 21.3549 0.011103 16.933C0.154085 12.5111 1.96662 8.30742 5.08394 5.16798C8.20127 2.02855 12.392 0.18635 16.8128 0.012122C21.2336 -0.162106 25.5563 1.34456 28.911 4.22893C32.2658 7.11329 34.4035 11.1613 34.8941 15.5582C35.3846 19.9552 34.1915 24.3747 31.555 27.9275V27.93ZM30 17.5C30 14.1848 28.683 11.0054 26.3388 8.66117C23.9946 6.31696 20.8152 5 17.5 5C14.1848 5 11.0053 6.31696 8.66113 8.66117C6.31693 11.0054 4.99997 14.1848 4.99997 17.5C4.99997 20.8152 6.31693 23.9946 8.66113 26.3388C11.0053 28.683 14.1848 30 17.5 30C20.8152 30 23.9946 28.683 26.3388 26.3388C28.683 23.9946 30 20.8152 30 17.5Z" fill="white"/>
</svg>
