<svg width="40" height="40" viewBox="0 0 40 40" fill="none" xmlns="http://www.w3.org/2000/svg">
<path d="M36.25 20V32.5C36.25 34.1576 35.5915 35.7473 34.4194 36.9194C33.2473 38.0915 31.6576 38.75 30 38.75H21.25C20.9185 38.75 20.6005 38.6183 20.3661 38.3839C20.1317 38.1494 20 37.8315 20 37.5C20 37.1684 20.1317 36.8505 20.3661 36.6161C20.6005 36.3817 20.9185 36.25 21.25 36.25H30C30.9946 36.25 31.9484 35.8549 32.6517 35.1516C33.3549 34.4484 33.75 33.4945 33.75 32.5H30C29.0054 32.5 28.0516 32.1049 27.3484 31.4016C26.6451 30.6984 26.25 29.7445 26.25 28.75V22.5C26.25 21.5054 26.6451 20.5516 27.3484 19.8483C28.0516 19.1451 29.0054 18.75 30 18.75H33.6953C33.4588 16.1514 32.4877 13.6738 30.8956 11.6066C29.3035 9.53936 27.1561 7.9678 24.7041 7.07549C22.2521 6.18318 19.5969 6.00696 17.0485 6.56742C14.5001 7.12788 12.1638 8.40188 10.3125 10.2406C8.01051 12.5124 6.59064 15.5283 6.30625 18.75H10C10.9946 18.75 11.9484 19.1451 12.6517 19.8483C13.3549 20.5516 13.75 21.5054 13.75 22.5V28.75C13.75 29.7445 13.3549 30.6984 12.6517 31.4016C11.9484 32.1049 10.9946 32.5 10 32.5H7.5C6.50544 32.5 5.55161 32.1049 4.84835 31.4016C4.14509 30.6984 3.75 29.7445 3.75 28.75V20C3.7535 16.7811 4.71191 13.6355 6.50391 10.9616C8.29591 8.28761 10.8409 6.20539 13.8169 4.97849C16.7928 3.75158 20.0658 3.43515 23.2216 4.06924C26.3775 4.70333 29.2743 6.25944 31.5453 8.5406C33.0448 10.0473 34.2322 11.835 35.0396 13.8015C35.8469 15.7679 36.2582 17.8743 36.25 20Z" fill="white"/>
</svg>
