<svg width="76" height="88" viewBox="0 0 76 88" fill="none" xmlns="http://www.w3.org/2000/svg">
<path d="M4.66667 0.833374H71.3333C73.6346 0.833374 75.5 2.69887 75.5 5.00004V85.318C75.5 86.4688 74.5671 87.4017 73.4167 87.4017C73.1242 87.4017 72.835 87.3396 72.5679 87.2205L38 71.7971L3.43221 87.2205C2.38146 87.6896 1.14963 87.2175 0.680792 86.1671C0.561583 85.8996 0.5 85.6105 0.5 85.318V5.00004C0.5 2.69887 2.3655 0.833374 4.66667 0.833374ZM67.1667 75.6855V9.16671H8.83333V75.6855L38 62.6717L67.1667 75.6855ZM38 48.75L25.7545 55.188L28.0932 41.5521L18.1863 31.8955L31.8771 29.9061L38 17.5L44.1229 29.9061L57.8138 31.8955L47.9067 41.5521L50.2454 55.188L38 48.75Z" fill="#B73230"/>
</svg>
