<svg width="40" height="40" viewBox="0 0 40 40" fill="none" xmlns="http://www.w3.org/2000/svg">
<path d="M20.0002 23.3333C23.6768 23.3333 26.6668 20.3433 26.6668 16.6667C26.6668 12.99 23.6768 10 20.0002 10C16.3235 10 13.3335 12.99 13.3335 16.6667C13.3335 20.3433 16.3235 23.3333 20.0002 23.3333ZM20.0002 13.3333C21.8385 13.3333 23.3335 14.8283 23.3335 16.6667C23.3335 18.505 21.8385 20 20.0002 20C18.1618 20 16.6668 18.505 16.6668 16.6667C16.6668 14.8283 18.1618 13.3333 20.0002 13.3333Z" fill="white"/>
<path d="M19.0333 36.3566C19.3156 36.5576 19.6535 36.6656 20 36.6656C20.3465 36.6656 20.6844 36.5576 20.9667 36.3566C21.4733 35.9982 33.3817 27.3999 33.3333 16.6666C33.3333 9.31492 27.3517 3.33325 20 3.33325C12.6483 3.33325 6.66665 9.31492 6.66665 16.6583C6.61832 27.3999 18.5267 35.9982 19.0333 36.3566ZM20 6.66659C25.515 6.66659 30 11.1516 30 16.6749C30.035 24.0716 22.6867 30.7133 20 32.8916C17.315 30.7116 9.96498 24.0683 9.99998 16.6666C9.99998 11.1516 14.485 6.66659 20 6.66659Z" fill="white"/>
</svg>
