<svg width="40" height="40" viewBox="0 0 40 40" fill="none" xmlns="http://www.w3.org/2000/svg">
<path d="M20 16.6667C20.766 16.6667 21.5246 16.5158 22.2323 16.2226C22.9401 15.9295 23.5831 15.4998 24.1248 14.9581C24.6665 14.4164 25.0961 13.7734 25.3893 13.0657C25.6824 12.3579 25.8333 11.5994 25.8333 10.8333C25.8333 10.0673 25.6824 9.30875 25.3893 8.60101C25.0961 7.89328 24.6665 7.25022 24.1248 6.70854C23.5831 6.16687 22.9401 5.73719 22.2323 5.44404C21.5246 5.15088 20.766 5 20 5C18.4529 5 16.9692 5.61458 15.8752 6.70854C14.7812 7.80251 14.1667 9.28624 14.1667 10.8333C14.1667 12.3804 14.7812 13.8642 15.8752 14.9581C16.9692 16.0521 18.4529 16.6667 20 16.6667ZM5 34V35H35V34C35 30.2667 35 28.4 34.2733 26.9733C33.6342 25.719 32.6144 24.6991 31.36 24.06C29.9333 23.3333 28.0667 23.3333 24.3333 23.3333H15.6667C11.9333 23.3333 10.0667 23.3333 8.64 24.06C7.38564 24.6991 6.36581 25.719 5.72667 26.9733C5 28.4 5 30.2667 5 34Z" fill="black" stroke="black" stroke-width="2" stroke-linecap="round" stroke-linejoin="round"/>
</svg>
